<svg fill="none" height="92" viewBox="0 0 92 92" width="92" xmlns="http://www.w3.org/2000/svg"><rect fill="#e74d89" height="91.5618" rx="45.7809" width="91.5618" y=".075195"/><g fill="#fff"><path d="m46 71.0752c-13.7823 0-25-11.2177-25-25s11.2177-25 25-25 25 11.2177 25 25-11.2177 25-25 25zm0-45.9677c-11.5645 0-20.9677 9.4032-20.9677 20.9677s9.4032 20.9677 20.9677 20.9677 20.9677-9.4032 20.9677-20.9677-9.4032-20.9677-20.9677-20.9677z"/><path d="m38.7435 43.6155c-4.7258 0-9.8387-.7017-15.2903-2.121-1.0807-.2823-1.7258-1.379-1.4436-2.4597.2823-1.0806 1.3791-1.7258 2.4597-1.4435 16.5161 4.2903 29.4436 1.5725 37.3791-7.8468.7177-.8468 1.9919-.9597 2.8387-.242.8548.7178.9596 1.992.2419 2.8388-6.2984 7.4758-15.2016 11.2742-26.1855 11.2742z"/><path d="m28.6646 63.1796c-.4677 0-.9274-.1613-1.3064-.4838-.8468-.7258-.9436-2-.2258-2.8468 11.7903-13.7823 27.0483-17.0565 41.8629-8.9677.9758.5322 1.3387 1.758.8064 2.7338-.5322.9758-1.758 1.3387-2.7339.8065-17.7903-9.7016-30.7338.879-36.8709 8.0564-.3952.4597-.9597.7016-1.5323.7016z"/><path d="m52.6061 70.1082c-.0726 0-.1452 0-.2178-.008-1.1048-.121-1.9032-1.1129-1.7822-2.2258 1.5725-14.4194-2.1371-28.9597-11.0162-43.2339-.5887-.9435-.2983-2.1855.6452-2.7742s2.1855-.2984 2.7742.6452c9.371 15.0564 13.2742 30.4677 11.6048 45.8064-.1209 1.0323-.9919 1.7903-2.008 1.7903z"/></g></svg>