<svg xmlns="http://www.w3.org/2000/svg" viewBox="0 0 64 64" id="editing"><rect width="64" height="48" y="3" fill="#00bebd" rx="3"></rect><path fill="#00aaa8" d="m39.81 61.05-16-.1 1.07-10 14 .1.93 10z"></path><path fill="#50d9d7" d="m46.81 62.1-30-.2a1 1 0 0 1 0-2l30 .2a1 1 0 0 1 0 2Z"></path><path fill="#c8c8c8" d="M3 5h58a1 1 0 0 1 1 1v3H2V6a1 1 0 0 1 1-1Z"></path><path fill="#fff" d="M2 9h60v36H2z"></path><path fill="#f3f3f3" d="M2 9h10v26H2zM50 9h12v36H50z"></path><path fill="#c8c8c8" d="M4 11h3v3H4zM7 14h3v3H7z"></path><path fill="#d9d9d9" d="M7 11h3v3H7zM4 14h3v3H4z"></path><path fill="#c8c8c8" d="M4 17h3v3H4zM7 20h3v3H7z"></path><path fill="#d9d9d9" d="M7 17h3v3H7zM4 20h3v3H4z"></path><path fill="#ffac00" d="M6 27h4v4H6z"></path><path fill="#00bebd" d="M4 25h4v4H4z"></path><path fill="#d9d9d9" d="M50 30h12v4H50z"></path><path fill="#f3f3f3" d="M50 32h5v2h-5z"></path><path fill="#d9d9d9" d="M50 9h12v4H50z"></path><path fill="#f3f3f3" d="M50 11h5v2h-5z"></path><path fill="#50d9d7" d="M54 17h4v4h-4z"></path><path fill="#ffac00" d="M52 15h4v4h-4z"></path><path fill="#50d9d7" d="M52 23h8v2h-8zM52 36h8v2h-8z"></path><path fill="#ffac00" d="M32 33a9 9 0 1 1 7.06-14.57A9 9 0 0 1 32 33Z"></path><path fill="#50d9d7" d="M52 40h8v2h-8z"></path><path fill="#ea9807" d="M39.06 18.43c-1 .57-.84.52-7.64 7.33a2 2 0 0 1-2.83 0l-.85-.85A6 6 0 0 0 23 23.18a8.83 8.83 0 0 0 .54 4c1 0 1.54.78 2.18 1.42a6 6 0 0 0 8.48 0c6.68-6.69 6.39-6.42 6.55-6.52a9 9 0 0 0-1.69-3.65Z"></path><path fill="#50d9d7" d="m2 45 18.67-18.67a4 4 0 0 1 5.66 0l.84.84a4 4 0 0 0 5.66 0l6.34-6.34a4 4 0 0 1 5.66 0l5.26 5.26V45H2"></path><path fill="#93e6e5" d="M40 33h6a2 2 0 0 1 2 2v10H38V35a2 2 0 0 1 2-2Z"></path><path fill="#00bebd" d="M39 40h-6a1 1 0 0 1 0-2h6a1 1 0 0 1 0 2Z"></path><path fill="#f3f3f3" d="M14 11h10v2H14zM14 15h6v2h-6z"></path><path fill="#00aaa8" d="M35.05 24 40 26.12l-2.12.71-.71 2.12L35.05 24z"></path></svg>